<svg width="1024" height="1024" viewBox="0 0 1024 1024" fill="none" xmlns="http://www.w3.org/2000/svg">
<g filter="url(#filter0_d_212_198)">
<g filter="url(#filter1_i_212_198)">
<path d="M298.5 429.5L351.5 428L271.516 515L337.5 588.5H273.5L237.5 552L271.516 515L309 467.5L178.5 604H118L200.5 513L145.5 448.5H202.5L237.5 491L210.5 525L298.5 429.5Z" fill="url(#paint0_linear_212_198)"/>
</g>
<path d="M409.69 503.732C409.69 507.992 410.163 512.157 411.11 516.228C412.151 520.204 413.761 523.801 415.938 527.02C418.115 530.239 420.955 532.842 424.458 534.83C427.961 536.723 432.221 537.67 437.238 537.67C442.255 537.67 446.515 536.723 450.018 534.83C453.521 532.842 456.361 530.239 458.538 527.02C460.715 523.801 462.277 520.204 463.224 516.228C464.265 512.157 464.786 507.992 464.786 503.732C464.786 499.283 464.265 494.975 463.224 490.81C462.277 486.645 460.715 482.953 458.538 479.734C456.361 476.421 453.521 473.817 450.018 471.924C446.515 469.936 442.255 468.942 437.238 468.942C432.221 468.942 427.961 469.936 424.458 471.924C420.955 473.817 418.115 476.421 415.938 479.734C413.761 482.953 412.151 486.645 411.11 490.81C410.163 494.975 409.69 499.283 409.69 503.732ZM387.396 503.732C387.396 496.159 388.532 489.153 390.804 482.716C393.076 476.184 396.342 470.504 400.602 465.676C404.862 460.848 410.069 457.061 416.222 454.316C422.47 451.571 429.475 450.198 437.238 450.198C445.095 450.198 452.101 451.571 458.254 454.316C464.407 457.061 469.614 460.848 473.874 465.676C478.134 470.504 481.4 476.184 483.672 482.716C485.944 489.153 487.08 496.159 487.08 503.732C487.08 511.116 485.944 518.027 483.672 524.464C481.4 530.807 478.134 536.345 473.874 541.078C469.614 545.811 464.407 549.551 458.254 552.296C452.101 554.947 445.095 556.272 437.238 556.272C429.475 556.272 422.47 554.947 416.222 552.296C410.069 549.551 404.862 545.811 400.602 541.078C396.342 536.345 393.076 530.807 390.804 524.464C388.532 518.027 387.396 511.116 387.396 503.732ZM518.933 515.376L494.793 480.586H517.797L530.719 499.756L543.499 480.586H565.793L541.653 514.95L568.775 554H545.771L530.435 530.854L515.099 554H492.521L518.933 515.376ZM626.443 506.43C625.118 498.005 620.148 493.792 611.533 493.792C608.314 493.792 605.616 494.549 603.439 496.064C601.262 497.484 599.463 499.377 598.043 501.744C596.718 504.016 595.771 506.572 595.203 509.412C594.635 512.157 594.351 514.903 594.351 517.648C594.351 520.299 594.635 522.997 595.203 525.742C595.771 528.487 596.67 530.996 597.901 533.268C599.226 535.445 600.978 537.244 603.155 538.664C605.332 540.084 607.983 540.794 611.107 540.794C615.935 540.794 619.627 539.469 622.183 536.818C624.834 534.073 626.49 530.428 627.153 525.884H646.607C645.282 535.635 641.495 543.066 635.247 548.178C628.999 553.29 621 555.846 611.249 555.846C605.758 555.846 600.694 554.947 596.055 553.148C591.511 551.255 587.63 548.651 584.411 545.338C581.192 542.025 578.684 538.096 576.885 533.552C575.086 528.913 574.187 523.849 574.187 518.358C574.187 512.678 574.992 507.424 576.601 502.596C578.305 497.673 580.766 493.461 583.985 489.958C587.204 486.361 591.132 483.568 595.771 481.58C600.41 479.592 605.711 478.598 611.675 478.598C616.03 478.598 620.195 479.166 624.171 480.302C628.242 481.438 631.839 483.189 634.963 485.556C638.182 487.828 640.785 490.715 642.773 494.218C644.761 497.626 645.897 501.697 646.181 506.43H626.443ZM675.89 517.364C675.89 520.299 676.174 523.186 676.742 526.026C677.31 528.771 678.257 531.28 679.582 533.552C681.002 535.729 682.848 537.481 685.12 538.806C687.392 540.131 690.232 540.794 693.64 540.794C697.048 540.794 699.888 540.131 702.16 538.806C704.527 537.481 706.373 535.729 707.698 533.552C709.118 531.28 710.112 528.771 710.68 526.026C711.248 523.186 711.532 520.299 711.532 517.364C711.532 514.429 711.248 511.542 710.68 508.702C710.112 505.862 709.118 503.353 707.698 501.176C706.373 498.999 704.527 497.247 702.16 495.922C699.888 494.502 697.048 493.792 693.64 493.792C690.232 493.792 687.392 494.502 685.12 495.922C682.848 497.247 681.002 498.999 679.582 501.176C678.257 503.353 677.31 505.862 676.742 508.702C676.174 511.542 675.89 514.429 675.89 517.364ZM655.726 517.364C655.726 511.495 656.625 506.193 658.424 501.46C660.223 496.632 662.779 492.561 666.092 489.248C669.405 485.84 673.381 483.237 678.02 481.438C682.659 479.545 687.865 478.598 693.64 478.598C699.415 478.598 704.621 479.545 709.26 481.438C713.993 483.237 718.017 485.84 721.33 489.248C724.643 492.561 727.199 496.632 728.998 501.46C730.797 506.193 731.696 511.495 731.696 517.364C731.696 523.233 730.797 528.535 728.998 533.268C727.199 538.001 724.643 542.072 721.33 545.48C718.017 548.793 713.993 551.349 709.26 553.148C704.621 554.947 699.415 555.846 693.64 555.846C687.865 555.846 682.659 554.947 678.02 553.148C673.381 551.349 669.405 548.793 666.092 545.48C662.779 542.072 660.223 538.001 658.424 533.268C656.625 528.535 655.726 523.233 655.726 517.364ZM796.921 517.08C796.921 514.051 796.637 511.163 796.069 508.418C795.501 505.578 794.507 503.117 793.087 501.034C791.761 498.857 790.01 497.105 787.833 495.78C785.655 494.455 782.91 493.792 779.597 493.792C776.283 493.792 773.491 494.455 771.219 495.78C768.947 497.105 767.101 498.857 765.681 501.034C764.355 503.211 763.361 505.72 762.699 508.56C762.131 511.305 761.847 514.193 761.847 517.222C761.847 520.062 762.178 522.902 762.841 525.742C763.503 528.582 764.545 531.138 765.965 533.41C767.479 535.587 769.325 537.386 771.503 538.806C773.775 540.131 776.473 540.794 779.597 540.794C782.91 540.794 785.655 540.131 787.833 538.806C790.105 537.481 791.903 535.729 793.229 533.552C794.554 531.28 795.501 528.724 796.069 525.884C796.637 523.044 796.921 520.109 796.921 517.08ZM797.205 544.628H796.921C794.554 548.604 791.43 551.491 787.549 553.29C783.762 554.994 779.455 555.846 774.627 555.846C769.136 555.846 764.308 554.805 760.143 552.722C755.977 550.545 752.522 547.657 749.777 544.06C747.126 540.368 745.091 536.155 743.671 531.422C742.345 526.689 741.683 521.766 741.683 516.654C741.683 511.731 742.345 506.998 743.671 502.454C745.091 497.815 747.126 493.745 749.777 490.242C752.522 486.739 755.93 483.947 760.001 481.864C764.071 479.687 768.805 478.598 774.201 478.598C778.555 478.598 782.673 479.545 786.555 481.438C790.531 483.237 793.655 485.935 795.927 489.532H796.211V452.612H816.375V554H797.205V544.628ZM881.031 509.412C880.085 504.3 878.381 500.419 875.919 497.768C873.553 495.117 869.908 493.792 864.985 493.792C861.767 493.792 859.069 494.36 856.891 495.496C854.809 496.537 853.105 497.863 851.779 499.472C850.549 501.081 849.649 502.785 849.081 504.584C848.608 506.383 848.324 507.992 848.229 509.412H881.031ZM848.229 522.192C848.513 528.724 850.17 533.457 853.199 536.392C856.229 539.327 860.583 540.794 866.263 540.794C870.334 540.794 873.837 539.8 876.771 537.812C879.706 535.729 881.505 533.552 882.167 531.28H899.917C897.077 540.084 892.723 546.379 886.853 550.166C880.984 553.953 873.884 555.846 865.553 555.846C859.779 555.846 854.572 554.947 849.933 553.148C845.295 551.255 841.366 548.604 838.147 545.196C834.929 541.788 832.42 537.717 830.621 532.984C828.917 528.251 828.065 523.044 828.065 517.364C828.065 511.873 828.965 506.761 830.763 502.028C832.562 497.295 835.118 493.224 838.431 489.816C841.745 486.313 845.673 483.568 850.217 481.58C854.856 479.592 859.968 478.598 865.553 478.598C871.801 478.598 877.245 479.829 881.883 482.29C886.522 484.657 890.309 487.875 893.243 491.946C896.273 496.017 898.45 500.655 899.775 505.862C901.101 511.069 901.574 516.512 901.195 522.192H848.229Z" fill="#383A96"/>
<path d="M400.189 597.057C400.258 598.277 400.546 599.269 401.054 600.03C402.021 601.456 403.725 602.169 406.166 602.169C407.26 602.169 408.256 602.013 409.154 601.7C410.893 601.095 411.762 600.011 411.762 598.448C411.762 597.276 411.396 596.441 410.663 595.943C409.921 595.455 408.759 595.03 407.177 594.669L404.262 594.01C402.357 593.58 401.01 593.106 400.219 592.589C398.852 591.69 398.168 590.348 398.168 588.561C398.168 586.627 398.837 585.04 400.175 583.8C401.513 582.56 403.407 581.939 405.858 581.939C408.114 581.939 410.028 582.486 411.601 583.58C413.183 584.664 413.974 586.402 413.974 588.795H411.234C411.088 587.643 410.775 586.759 410.297 586.144C409.408 585.021 407.899 584.459 405.771 584.459C404.052 584.459 402.816 584.82 402.064 585.543C401.312 586.266 400.937 587.105 400.937 588.062C400.937 589.117 401.376 589.889 402.255 590.377C402.831 590.689 404.135 591.08 406.166 591.549L409.184 592.237C410.639 592.569 411.762 593.023 412.553 593.6C413.92 594.605 414.604 596.065 414.604 597.979C414.604 600.362 413.734 602.066 411.996 603.092C410.268 604.117 408.256 604.63 405.961 604.63C403.285 604.63 401.19 603.946 399.677 602.579C398.163 601.222 397.421 599.381 397.45 597.057H400.189ZM424.169 602.301C425.917 602.301 427.113 601.642 427.758 600.323C428.412 598.995 428.739 597.521 428.739 595.899C428.739 594.435 428.505 593.243 428.036 592.325C427.294 590.88 426.015 590.157 424.198 590.157C422.587 590.157 421.415 590.772 420.683 592.003C419.95 593.233 419.584 594.718 419.584 596.456C419.584 598.126 419.95 599.518 420.683 600.631C421.415 601.744 422.577 602.301 424.169 602.301ZM424.271 587.857C426.293 587.857 428.002 588.531 429.398 589.879C430.795 591.227 431.493 593.209 431.493 595.826C431.493 598.355 430.878 600.445 429.647 602.096C428.417 603.746 426.508 604.571 423.92 604.571C421.762 604.571 420.048 603.844 418.778 602.389C417.509 600.924 416.874 598.961 416.874 596.5C416.874 593.863 417.543 591.764 418.881 590.201C420.219 588.639 422.016 587.857 424.271 587.857ZM435.302 585.924C435.341 584.83 435.531 584.029 435.873 583.521C436.488 582.623 437.675 582.174 439.433 582.174C439.599 582.174 439.77 582.179 439.945 582.188C440.121 582.198 440.321 582.213 440.546 582.232V584.635C440.272 584.615 440.072 584.605 439.945 584.605C439.828 584.596 439.716 584.591 439.608 584.591C438.808 584.591 438.329 584.801 438.173 585.221C438.017 585.631 437.938 586.686 437.938 588.385H440.546V590.465H437.909V604H435.302V590.465H433.119V588.385H435.302V585.924ZM443.52 583.932H446.186V588.312H448.69V590.465H446.186V600.704C446.186 601.251 446.371 601.617 446.742 601.803C446.947 601.91 447.289 601.964 447.768 601.964C447.895 601.964 448.031 601.964 448.178 601.964C448.324 601.954 448.495 601.939 448.69 601.92V604C448.388 604.088 448.07 604.151 447.738 604.19C447.416 604.229 447.064 604.249 446.684 604.249C445.453 604.249 444.618 603.937 444.179 603.312C443.739 602.677 443.52 601.856 443.52 600.851V590.465H441.396V588.312H443.52V583.932ZM452.558 588.312L455.575 600.675L458.637 588.312H461.596L464.672 600.602L467.88 588.312H470.517L465.961 604H463.222L460.028 591.856L456.938 604H454.198L449.672 588.312H452.558ZM475.043 599.825C475.043 600.587 475.321 601.188 475.878 601.627C476.435 602.066 477.094 602.286 477.855 602.286C478.783 602.286 479.682 602.071 480.551 601.642C482.016 600.929 482.748 599.762 482.748 598.141V596.017C482.426 596.222 482.011 596.393 481.503 596.529C480.995 596.666 480.497 596.764 480.009 596.822L478.412 597.027C477.455 597.154 476.737 597.354 476.259 597.628C475.448 598.087 475.043 598.819 475.043 599.825ZM481.43 594.493C482.035 594.415 482.44 594.161 482.646 593.731C482.763 593.497 482.821 593.16 482.821 592.721C482.821 591.822 482.499 591.173 481.854 590.772C481.22 590.362 480.307 590.157 479.115 590.157C477.738 590.157 476.762 590.528 476.186 591.271C475.863 591.681 475.653 592.291 475.556 593.102H473.095C473.144 591.168 473.769 589.825 474.97 589.073C476.181 588.312 477.582 587.931 479.174 587.931C481.02 587.931 482.519 588.282 483.671 588.985C484.813 589.688 485.385 590.782 485.385 592.267V601.305C485.385 601.578 485.438 601.798 485.546 601.964C485.663 602.13 485.902 602.213 486.264 602.213C486.381 602.213 486.513 602.208 486.659 602.198C486.806 602.179 486.962 602.154 487.128 602.125V604.073C486.718 604.19 486.405 604.264 486.19 604.293C485.976 604.322 485.683 604.337 485.312 604.337C484.403 604.337 483.744 604.015 483.334 603.37C483.119 603.028 482.968 602.545 482.88 601.92C482.343 602.623 481.571 603.233 480.565 603.751C479.56 604.269 478.451 604.527 477.24 604.527C475.785 604.527 474.594 604.088 473.666 603.209C472.748 602.32 472.289 601.212 472.289 599.884C472.289 598.429 472.743 597.301 473.651 596.5C474.56 595.699 475.751 595.206 477.226 595.021L481.43 594.493ZM489.794 588.312H492.299V591.021C492.504 590.494 493.007 589.854 493.808 589.103C494.608 588.341 495.531 587.96 496.576 587.96C496.625 587.96 496.708 587.965 496.825 587.975C496.942 587.984 497.143 588.004 497.426 588.033V590.816C497.27 590.787 497.123 590.768 496.986 590.758C496.859 590.748 496.718 590.743 496.562 590.743C495.233 590.743 494.213 591.173 493.5 592.032C492.787 592.882 492.431 593.863 492.431 594.977V604H489.794V588.312ZM506.244 587.96C507.357 587.96 508.437 588.224 509.481 588.751C510.526 589.269 511.322 589.942 511.869 590.772C512.396 591.563 512.748 592.486 512.924 593.541C513.08 594.264 513.158 595.416 513.158 596.998H501.659C501.708 598.59 502.084 599.869 502.787 600.836C503.49 601.793 504.579 602.271 506.054 602.271C507.431 602.271 508.529 601.817 509.35 600.909C509.818 600.382 510.15 599.771 510.346 599.078H512.938C512.87 599.654 512.641 600.299 512.25 601.012C511.869 601.715 511.439 602.291 510.961 602.74C510.16 603.521 509.169 604.049 507.987 604.322C507.353 604.479 506.635 604.557 505.834 604.557C503.881 604.557 502.226 603.849 500.868 602.433C499.511 601.007 498.832 599.015 498.832 596.456C498.832 593.937 499.516 591.891 500.883 590.318C502.25 588.746 504.037 587.96 506.244 587.96ZM510.448 594.903C510.341 593.761 510.092 592.848 509.701 592.164C508.979 590.895 507.772 590.26 506.083 590.26C504.872 590.26 503.856 590.699 503.036 591.578C502.216 592.447 501.781 593.556 501.732 594.903H510.448ZM527.016 597.057C527.084 598.277 527.372 599.269 527.88 600.03C528.847 601.456 530.551 602.169 532.992 602.169C534.086 602.169 535.082 602.013 535.98 601.7C537.719 601.095 538.588 600.011 538.588 598.448C538.588 597.276 538.222 596.441 537.489 595.943C536.747 595.455 535.585 595.03 534.003 594.669L531.088 594.01C529.184 593.58 527.836 593.106 527.045 592.589C525.678 591.69 524.994 590.348 524.994 588.561C524.994 586.627 525.663 585.04 527.001 583.8C528.339 582.56 530.233 581.939 532.685 581.939C534.94 581.939 536.854 582.486 538.427 583.58C540.009 584.664 540.8 586.402 540.8 588.795H538.061C537.914 587.643 537.602 586.759 537.123 586.144C536.234 585.021 534.726 584.459 532.597 584.459C530.878 584.459 529.643 584.82 528.891 585.543C528.139 586.266 527.763 587.105 527.763 588.062C527.763 589.117 528.202 589.889 529.081 590.377C529.657 590.689 530.961 591.08 532.992 591.549L536.01 592.237C537.465 592.569 538.588 593.023 539.379 593.6C540.746 594.605 541.43 596.065 541.43 597.979C541.43 600.362 540.561 602.066 538.822 603.092C537.094 604.117 535.082 604.63 532.787 604.63C530.111 604.63 528.017 603.946 526.503 602.579C524.989 601.222 524.247 599.381 524.276 597.057H527.016ZM550.995 602.301C552.743 602.301 553.939 601.642 554.584 600.323C555.238 598.995 555.565 597.521 555.565 595.899C555.565 594.435 555.331 593.243 554.862 592.325C554.12 590.88 552.841 590.157 551.024 590.157C549.413 590.157 548.241 590.772 547.509 592.003C546.776 593.233 546.41 594.718 546.41 596.456C546.41 598.126 546.776 599.518 547.509 600.631C548.241 601.744 549.403 602.301 550.995 602.301ZM551.098 587.857C553.119 587.857 554.828 588.531 556.225 589.879C557.621 591.227 558.319 593.209 558.319 595.826C558.319 598.355 557.704 600.445 556.474 602.096C555.243 603.746 553.334 604.571 550.746 604.571C548.588 604.571 546.874 603.844 545.604 602.389C544.335 600.924 543.7 598.961 543.7 596.5C543.7 593.863 544.369 591.764 545.707 590.201C547.045 588.639 548.842 587.857 551.098 587.857ZM561.542 582.481H564.179V604H561.542V582.481ZM570.785 588.312V598.727C570.785 599.527 570.912 600.182 571.166 600.689C571.635 601.627 572.509 602.096 573.788 602.096C575.624 602.096 576.874 601.275 577.538 599.635C577.899 598.756 578.08 597.55 578.08 596.017V588.312H580.717V604H578.227L578.256 601.686C577.914 602.281 577.489 602.784 576.981 603.194C575.976 604.015 574.755 604.425 573.319 604.425C571.083 604.425 569.56 603.678 568.749 602.184C568.31 601.383 568.09 600.313 568.09 598.976V588.312H570.785ZM585.375 583.932H588.041V588.312H590.546V590.465H588.041V600.704C588.041 601.251 588.227 601.617 588.598 601.803C588.803 601.91 589.145 601.964 589.623 601.964C589.75 601.964 589.887 601.964 590.033 601.964C590.18 601.954 590.351 601.939 590.546 601.92V604C590.243 604.088 589.926 604.151 589.594 604.19C589.271 604.229 588.92 604.249 588.539 604.249C587.309 604.249 586.474 603.937 586.034 603.312C585.595 602.677 585.375 601.856 585.375 600.851V590.465H583.251V588.312H585.375V583.932ZM593.197 588.385H595.878V604H593.197V588.385ZM593.197 582.481H595.878V585.47H593.197V582.481ZM606.103 602.301C607.851 602.301 609.047 601.642 609.691 600.323C610.346 598.995 610.673 597.521 610.673 595.899C610.673 594.435 610.438 593.243 609.97 592.325C609.228 590.88 607.948 590.157 606.132 590.157C604.521 590.157 603.349 590.772 602.616 592.003C601.884 593.233 601.518 594.718 601.518 596.456C601.518 598.126 601.884 599.518 602.616 600.631C603.349 601.744 604.511 602.301 606.103 602.301ZM606.205 587.857C608.227 587.857 609.936 588.531 611.332 589.879C612.729 591.227 613.427 593.209 613.427 595.826C613.427 598.355 612.812 600.445 611.581 602.096C610.351 603.746 608.441 604.571 605.854 604.571C603.695 604.571 601.981 603.844 600.712 602.389C599.442 600.924 598.808 598.961 598.808 596.5C598.808 593.863 599.477 591.764 600.814 590.201C602.152 588.639 603.949 587.857 606.205 587.857ZM616.576 588.312H619.081V590.538C619.823 589.62 620.609 588.961 621.439 588.561C622.27 588.16 623.192 587.96 624.208 587.96C626.435 587.96 627.938 588.736 628.72 590.289C629.149 591.139 629.364 592.354 629.364 593.937V604H626.684V594.112C626.684 593.155 626.542 592.384 626.259 591.798C625.79 590.821 624.94 590.333 623.71 590.333C623.085 590.333 622.572 590.396 622.172 590.523C621.449 590.738 620.814 591.168 620.268 591.812C619.828 592.33 619.54 592.867 619.403 593.424C619.276 593.971 619.213 594.757 619.213 595.782V604H616.576V588.312ZM634.843 599.078C634.921 599.957 635.141 600.631 635.502 601.1C636.166 601.949 637.318 602.374 638.959 602.374C639.936 602.374 640.795 602.164 641.537 601.744C642.279 601.314 642.65 600.655 642.65 599.767C642.65 599.093 642.353 598.58 641.757 598.229C641.376 598.014 640.624 597.765 639.501 597.481L637.406 596.954C636.068 596.622 635.082 596.251 634.447 595.841C633.314 595.128 632.748 594.142 632.748 592.882C632.748 591.397 633.28 590.196 634.345 589.278C635.419 588.36 636.859 587.901 638.666 587.901C641.029 587.901 642.733 588.595 643.778 589.981C644.433 590.86 644.75 591.808 644.73 592.823H642.24C642.191 592.228 641.981 591.686 641.61 591.197C641.005 590.504 639.955 590.157 638.461 590.157C637.465 590.157 636.708 590.348 636.19 590.729C635.683 591.109 635.429 591.612 635.429 592.237C635.429 592.921 635.766 593.468 636.439 593.878C636.83 594.122 637.406 594.337 638.168 594.522L639.911 594.947C641.806 595.406 643.075 595.851 643.72 596.28C644.745 596.954 645.258 598.014 645.258 599.459C645.258 600.855 644.726 602.062 643.661 603.077C642.606 604.093 640.995 604.601 638.827 604.601C636.493 604.601 634.838 604.073 633.861 603.019C632.895 601.954 632.377 600.641 632.309 599.078H634.843ZM656.977 582.481H659.892V601.437H670.79V604H656.977V582.481ZM673.676 582.481H676.591V601.437H687.489V604H673.676V582.481ZM690.653 582.481H700.336C702.25 582.481 703.793 583.023 704.965 584.107C706.137 585.182 706.723 586.695 706.723 588.648C706.723 590.328 706.2 591.793 705.155 593.043C704.11 594.283 702.504 594.903 700.336 594.903H693.568V604H690.653V582.481ZM703.778 588.663C703.778 587.081 703.192 586.007 702.021 585.44C701.376 585.138 700.492 584.986 699.369 584.986H693.568V592.442H699.369C700.678 592.442 701.737 592.164 702.548 591.607C703.368 591.051 703.778 590.069 703.778 588.663Z" fill="#7EA1FF"/>
</g>
<defs>
<filter id="filter0_d_212_198" x="-4" y="0" width="1032" height="1032" filterUnits="userSpaceOnUse" color-interpolation-filters="sRGB">
<feFlood flood-opacity="0" result="BackgroundImageFix"/>
<feColorMatrix in="SourceAlpha" type="matrix" values="0 0 0 0 0 0 0 0 0 0 0 0 0 0 0 0 0 0 127 0" result="hardAlpha"/>
<feOffset dy="4"/>
<feGaussianBlur stdDeviation="2"/>
<feComposite in2="hardAlpha" operator="out"/>
<feColorMatrix type="matrix" values="0 0 0 0 0 0 0 0 0 0 0 0 0 0 0 0 0 0 0.25 0"/>
<feBlend mode="normal" in2="BackgroundImageFix" result="effect1_dropShadow_212_198"/>
<feBlend mode="normal" in="SourceGraphic" in2="effect1_dropShadow_212_198" result="shape"/>
</filter>
<filter id="filter1_i_212_198" x="118" y="428" width="233.5" height="177" filterUnits="userSpaceOnUse" color-interpolation-filters="sRGB">
<feFlood flood-opacity="0" result="BackgroundImageFix"/>
<feBlend mode="normal" in="SourceGraphic" in2="BackgroundImageFix" result="shape"/>
<feColorMatrix in="SourceAlpha" type="matrix" values="0 0 0 0 0 0 0 0 0 0 0 0 0 0 0 0 0 0 127 0" result="hardAlpha"/>
<feOffset dy="2"/>
<feGaussianBlur stdDeviation="0.5"/>
<feComposite in2="hardAlpha" operator="arithmetic" k2="-1" k3="1"/>
<feColorMatrix type="matrix" values="0 0 0 0 0 0 0 0 0 0 0 0 0 0 0 0 0 0 0.25 0"/>
<feBlend mode="normal" in2="shape" result="effect1_innerShadow_212_198"/>
</filter>
<linearGradient id="paint0_linear_212_198" x1="318" y1="428" x2="258.5" y2="502.5" gradientUnits="userSpaceOnUse">
<stop stop-color="#7EA1FF"/>
<stop offset="1" stop-color="#383A96"/>
</linearGradient>
</defs>
</svg>
